<?xml version="1.0" encoding="UTF-8" standalone="no"?>
<!-- Created with Inkscape (http://www.inkscape.org/) -->

<svg
   viewBox="0 0 6.0252905 9.7837"
   version="1.1"
   id="svg1"
   xmlns="http://www.w3.org/2000/svg"
   xmlns:svg="http://www.w3.org/2000/svg">
  <defs
     id="defs1" />
  <g
     id="layer1"
     transform="translate(-71.943822,-123.28385)">
    <path
       style="font-size:12.7px;line-height:1.25;font-family:'Helvetica Neue';-inkscape-font-specification:'Helvetica Neue';text-align:center;text-anchor:middle;fill:none;stroke:currentColor;stroke-width:0.5;stroke-linecap:round;stroke-linejoin:round;stroke-dasharray:none;stroke-opacity:1"
       d="m 72.194612,126.58185 h 1.0795 q 0,-0.4445 0.1016,-0.8255 0.1016,-0.381 0.3175,-0.6604 0.2286,-0.2794 0.5588,-0.4445 0.3302,-0.1651 0.7874,-0.1651 0.6858,0 1.0795,0.3937 0.4064,0.3937 0.4572,1.0922 0.0254,0.4699 -0.1143,0.8001 -0.1397,0.3302 -0.381,0.6096 -0.2286,0.2667 -0.508,0.5207 -0.2667,0.2413 -0.5207,0.5334 -0.2413,0.2921 -0.4191,0.6731 -0.1651,0.3683 -0.1905,0.9017 v 0.5969 h 1.0795 v -0.4953 q 0,-0.3302 0.0889,-0.5842 0.1016,-0.2667 0.254,-0.4826 0.1651,-0.2286 0.3556,-0.4191 0.2032,-0.2032 0.4064,-0.3937 0.2032,-0.2032 0.3937,-0.4191 0.2032,-0.2159 0.3556,-0.4699 0.1524,-0.254 0.2413,-0.5588 0.1016,-0.3175 0.1016,-0.7112 0,-0.6096 -0.2032,-1.0795 -0.1905,-0.4699 -0.5461,-0.7874 -0.3556,-0.3302 -0.8509,-0.4953 -0.4826,-0.1778 -1.0795,-0.1778 -0.6604,0 -1.1938,0.2286 -0.5334,0.2286 -0.9017,0.6477 -0.3683,0.4064 -0.5715,0.9652 -0.1905,0.5588 -0.1778,1.2065 z"
       id="path18"
       data-path-question="main"
       />

    <path
       style="font-size:12.7px;line-height:1.25;font-family:'Helvetica Neue';-inkscape-font-specification:'Helvetica Neue';text-align:center;text-anchor:middle;fill:none;stroke:currentColor;stroke-width:0.5;stroke-linecap:round;stroke-linejoin:round;stroke-dasharray:none;stroke-opacity:1"
       d="m 74.264712,131.40785 v 1.4097 h 1.4097 v -1.4097 z"
       data-path-question="dot"
       id="text18" />
  </g>
</svg>
